<svg width="56" height="60" viewBox="0 0 56 60" fill="none" xmlns="http://www.w3.org/2000/svg">
<g clip-path="url(#clip0_93_2)">
<path d="M0 0C18.3941 0 36.7882 0 55.7396 0C55.7396 19.8 55.7396 39.6 55.7396 60C37.3456 60 18.9515 60 0 60C0 40.2 0 20.4 0 0Z" fill="#05554F"/>
<path d="M42.3816 2.26329C42.5279 2.25963 42.6741 2.25597 42.8247 2.2522C43.6729 2.24673 44.219 2.29598 44.9112 2.84022C45.2663 3.19524 45.2663 3.19524 45.3106 3.7056C45.2675 4.24494 45.2115 4.52794 44.9112 4.97039C44.3663 5.33366 44.2611 5.36806 43.6485 5.36772C43.4288 5.37107 43.4288 5.37107 43.2047 5.37448C43.0466 5.3766 42.8885 5.37871 42.7256 5.3809C39.9544 5.46684 37.099 6.00333 34.6154 7.27808C34.3552 7.40852 34.3552 7.40852 34.0898 7.54158C30.8607 9.28477 28.5564 12.3248 27.3595 15.7766C27.2893 16.0197 27.2226 16.2638 27.1598 16.5089C27.1238 16.6331 27.0879 16.7574 27.0509 16.8854C26.5494 18.7993 26.6049 21.0117 27.5599 22.7787C28.5452 24.191 29.9478 25.1021 31.5976 25.5621C32.2483 25.6602 32.8929 25.7146 33.5503 25.7396C33.6893 25.4561 33.6893 25.4561 33.8311 25.1669C36.4401 19.9705 40.4185 16.8319 45.8876 14.9348C46.7398 14.6991 47.6151 14.6948 48.4948 14.6782C48.6152 14.675 48.7356 14.6719 48.8596 14.6686C49.9588 14.6706 50.6387 14.9984 51.4571 15.71C51.9479 16.3534 51.9486 16.9776 51.9071 17.7653C51.4643 20.9199 49.0281 23.5135 46.5974 25.3889C44.5936 26.8853 42.4992 27.8515 40.1183 28.5799C39.8973 28.6482 39.8973 28.6482 39.6718 28.7178C38.3812 29.0553 37.0068 29.0506 35.6805 29.1124C35.6585 29.3064 35.6365 29.5005 35.6139 29.7004C35.5194 30.4632 35.3821 31.2148 35.2367 31.9693C34.9856 33.4286 34.9434 34.8329 34.9482 36.3128C34.9475 36.5246 34.9468 36.7364 34.9461 36.9546C34.9473 37.968 34.9633 38.9432 35.1479 39.9408C35.3564 40.012 35.5648 40.0831 35.7796 40.1565C38.5101 41.1112 41.1625 42.2155 43.3136 44.2012C43.4845 44.3558 43.6555 44.5105 43.8316 44.6699C46.4987 47.159 48.7249 50.7577 49.0537 54.4582C49.0796 56.9258 49.0796 56.9258 48.284 57.8698C47.3219 58.6355 46.4845 58.8897 45.2663 58.7574C41.3805 57.9548 38.2747 54.8405 36.1524 51.6544C34.5308 49.131 32.4852 45.5043 32.4852 42.426C29.6137 42.0597 29.6137 42.0597 26.7382 41.727C26.6174 41.7135 26.4967 41.7 26.3722 41.686C25.5849 41.598 24.7973 41.5148 24.0091 41.4348C17.7677 40.7951 11.7244 39.6417 7.45561 34.6154C6.86053 33.8237 6.35247 32.9873 5.85798 32.1302C5.75958 31.9608 5.66119 31.7915 5.55981 31.617C2.74531 26.3964 2.80484 20.2902 4.45944 14.7314C6.398 8.45653 6.398 8.45653 8.16567 7.27808C8.84869 7.20357 9.24786 7.17255 9.82987 7.55545C10.226 8.14963 10.2761 8.51148 10.2958 9.23075C10.0841 9.86203 9.78227 10.4386 9.47484 11.0281C9.30859 11.3632 9.14286 11.6986 8.97766 12.0342C8.858 12.275 8.858 12.275 8.73592 12.5206C6.39159 17.2914 5.82426 23.015 7.51247 28.0723C8.91565 31.9447 11.3712 34.5515 15.0395 36.308C15.7582 36.6292 16.4589 36.8972 17.2189 37.1006C17.4437 37.1651 17.4437 37.1651 17.6731 37.2309C19.7303 37.7664 21.857 37.9325 23.9645 38.1657C24.9179 38.2715 25.8712 38.3782 26.8244 38.4856C27.2287 38.5308 27.633 38.575 28.0374 38.6191C29.3557 38.7652 30.6582 38.9329 31.9527 39.2307C31.8941 39.055 31.8355 38.8793 31.7751 38.6982C31.7273 37.8745 31.7319 37.0491 31.7308 36.2241C31.7302 36.0451 31.7302 36.0451 31.7297 35.8625C31.7282 33.8102 31.9089 31.8369 32.3077 29.8225C32.3427 29.6451 32.3777 29.4678 32.4138 29.2851C32.4373 29.1695 32.4609 29.0539 32.4852 28.9349C32.3168 28.9166 32.1484 28.8983 31.9748 28.8794C29.4211 28.5043 27.0048 27.3024 25.3652 25.2771C23.8487 23.0315 23.551 20.7454 23.6095 18.1065C23.6139 17.8909 23.6139 17.8909 23.6185 17.671C23.9044 13.39 26.9063 9.13864 30 6.39051C32.2033 4.54287 34.8833 3.54274 37.6331 2.84022C37.748 2.80858 37.8629 2.77694 37.9812 2.74435C39.4329 2.3549 40.8838 2.27285 42.3816 2.26329Z" fill="#FDF2EB"/>
<path d="M35.858 43.4911C38.074 44.1025 40.0038 45.3527 41.716 46.8639C41.8244 46.9557 41.9329 47.0475 42.0446 47.142C43.8756 48.8099 45.8712 52.0316 45.9957 54.5317C45.9981 54.8753 45.9884 55.2188 45.9763 55.5622C43.7579 55.5117 41.9354 53.7009 40.4734 52.1894C38.2317 49.8076 36.6126 46.6628 35.858 43.4911Z" fill="#075651"/>
<path d="M48.8166 17.7515C47.5434 20.8506 44.9281 23.2932 41.8935 24.6745C40.273 25.3511 38.7 25.9095 36.9231 25.9171C37.4662 24.695 38.1949 23.7417 39.0532 22.7219C39.1896 22.548 39.326 22.3741 39.4665 22.1949C39.9615 21.6031 40.5272 21.1538 41.1501 20.7026C41.2654 20.619 41.3807 20.5354 41.4995 20.4492C43.6189 18.9536 46.1462 17.5694 48.8166 17.7515Z" fill="#075651"/>
</g>
<defs>
<clipPath id="clip0_93_2">
<rect width="55.7396" height="60" fill="white"/>
</clipPath>
</defs>
</svg>
