<svg width="320" height="320" viewBox="0 0 320 320" fill="none" xmlns="http://www.w3.org/2000/svg">
<rect x="5" y="5" width="310" height="310" rx="15" fill="#FDF2EB"/>
<rect x="5" y="5" width="310" height="310" rx="15" stroke="#05554F" stroke-width="10"/>
<path d="M36.005 236V206.909H42.1555V230.929H54.6271V236H36.005ZM68.4446 236.426C66.2382 236.426 64.33 235.957 62.7202 235.02C61.1198 234.073 59.884 232.757 59.0128 231.071C58.1416 229.376 57.706 227.411 57.706 225.176C57.706 222.922 58.1416 220.953 59.0128 219.267C59.884 217.572 61.1198 216.256 62.7202 215.318C64.33 214.371 66.2382 213.898 68.4446 213.898C70.651 213.898 72.5545 214.371 74.1548 215.318C75.7647 216.256 77.0052 217.572 77.8764 219.267C78.7476 220.953 79.1832 222.922 79.1832 225.176C79.1832 227.411 78.7476 229.376 77.8764 231.071C77.0052 232.757 75.7647 234.073 74.1548 235.02C72.5545 235.957 70.651 236.426 68.4446 236.426ZM68.473 231.739C69.4768 231.739 70.3149 231.455 70.9872 230.886C71.6596 230.309 72.1662 229.523 72.5071 228.528C72.8575 227.534 73.0327 226.402 73.0327 225.134C73.0327 223.865 72.8575 222.733 72.5071 221.739C72.1662 220.744 71.6596 219.958 70.9872 219.381C70.3149 218.803 69.4768 218.514 68.473 218.514C67.4598 218.514 66.6075 218.803 65.9162 219.381C65.2344 219.958 64.7183 220.744 64.3679 221.739C64.027 222.733 63.8565 223.865 63.8565 225.134C63.8565 226.402 64.027 227.534 64.3679 228.528C64.7183 229.523 65.2344 230.309 65.9162 230.886C66.6075 231.455 67.4598 231.739 68.473 231.739ZM89.169 223.386V236H83.1179V214.182H88.8849V218.031H89.1406C89.6236 216.762 90.4332 215.759 91.5696 215.02C92.706 214.272 94.0838 213.898 95.7031 213.898C97.2183 213.898 98.5393 214.229 99.6662 214.892C100.793 215.555 101.669 216.502 102.294 217.733C102.919 218.955 103.232 220.413 103.232 222.108V236H97.1804V223.188C97.1899 221.852 96.849 220.811 96.1577 220.062C95.4664 219.305 94.5147 218.926 93.3026 218.926C92.4882 218.926 91.7685 219.101 91.1435 219.452C90.5279 219.802 90.045 220.313 89.6946 220.986C89.3537 221.649 89.1785 222.449 89.169 223.386ZM117.83 244.636C115.87 244.636 114.189 244.366 112.788 243.827C111.396 243.296 110.288 242.572 109.464 241.653C108.64 240.735 108.105 239.703 107.859 238.557L113.455 237.804C113.626 238.24 113.896 238.647 114.265 239.026C114.634 239.404 115.122 239.707 115.728 239.935C116.344 240.171 117.092 240.29 117.972 240.29C119.289 240.29 120.373 239.968 121.225 239.324C122.087 238.689 122.518 237.624 122.518 236.128V232.136H122.262C121.997 232.742 121.599 233.315 121.069 233.855C120.539 234.395 119.857 234.835 119.023 235.176C118.19 235.517 117.196 235.688 116.04 235.688C114.402 235.688 112.911 235.309 111.566 234.551C110.231 233.784 109.165 232.615 108.37 231.043C107.584 229.461 107.191 227.463 107.191 225.048C107.191 222.577 107.594 220.512 108.398 218.855C109.203 217.198 110.273 215.957 111.609 215.134C112.953 214.31 114.426 213.898 116.026 213.898C117.248 213.898 118.271 214.106 119.094 214.523C119.918 214.93 120.581 215.441 121.083 216.057C121.594 216.663 121.987 217.259 122.262 217.847H122.489V214.182H128.498V236.213C128.498 238.069 128.043 239.622 127.134 240.872C126.225 242.122 124.966 243.06 123.356 243.685C121.755 244.319 119.914 244.636 117.83 244.636ZM117.958 231.142C118.933 231.142 119.757 230.901 120.43 230.418C121.112 229.925 121.632 229.224 121.992 228.315C122.362 227.397 122.546 226.298 122.546 225.02C122.546 223.741 122.366 222.634 122.006 221.696C121.647 220.749 121.126 220.015 120.444 219.494C119.762 218.973 118.933 218.713 117.958 218.713C116.964 218.713 116.126 218.983 115.444 219.523C114.762 220.053 114.246 220.792 113.896 221.739C113.545 222.686 113.37 223.779 113.37 225.02C113.37 226.279 113.545 227.368 113.896 228.287C114.255 229.196 114.772 229.902 115.444 230.403C116.126 230.896 116.964 231.142 117.958 231.142ZM143.256 236.426C141.012 236.426 139.08 235.972 137.461 235.062C135.851 234.144 134.611 232.847 133.739 231.17C132.868 229.485 132.433 227.491 132.433 225.19C132.433 222.946 132.868 220.976 133.739 219.281C134.611 217.586 135.837 216.265 137.418 215.318C139.009 214.371 140.875 213.898 143.015 213.898C144.454 213.898 145.794 214.13 147.035 214.594C148.285 215.048 149.374 215.735 150.302 216.653C151.239 217.572 151.969 218.727 152.489 220.119C153.01 221.502 153.271 223.121 153.271 224.977V226.639H134.847V222.889H147.575C147.575 222.018 147.385 221.246 147.006 220.574C146.628 219.902 146.102 219.376 145.43 218.997C144.767 218.609 143.995 218.415 143.114 218.415C142.196 218.415 141.381 218.628 140.671 219.054C139.97 219.471 139.421 220.034 139.023 220.744C138.626 221.445 138.422 222.226 138.413 223.088V226.653C138.413 227.733 138.612 228.666 139.009 229.452C139.416 230.238 139.989 230.844 140.728 231.27C141.467 231.696 142.343 231.909 143.356 231.909C144.028 231.909 144.644 231.814 145.202 231.625C145.761 231.436 146.239 231.152 146.637 230.773C147.035 230.394 147.338 229.93 147.546 229.381L153.143 229.75C152.859 231.095 152.276 232.269 151.396 233.273C150.524 234.267 149.397 235.044 148.015 235.602C146.642 236.152 145.056 236.426 143.256 236.426ZM176.974 214.182L169.347 236H162.528L154.901 214.182H161.293L165.824 229.793H166.051L170.568 214.182H176.974ZM180.071 236V214.182H186.122V236H180.071ZM183.111 211.369C182.211 211.369 181.439 211.071 180.795 210.474C180.161 209.868 179.844 209.144 179.844 208.301C179.844 207.468 180.161 206.753 180.795 206.156C181.439 205.55 182.211 205.247 183.111 205.247C184.01 205.247 184.777 205.55 185.412 206.156C186.056 206.753 186.378 207.468 186.378 208.301C186.378 209.144 186.056 209.868 185.412 210.474C184.777 211.071 184.01 211.369 183.111 211.369ZM199.009 236.355C197.352 236.355 195.851 235.929 194.506 235.077C193.171 234.215 192.111 232.951 191.325 231.284C190.548 229.608 190.16 227.553 190.16 225.119C190.16 222.619 190.562 220.541 191.367 218.884C192.172 217.217 193.242 215.972 194.577 215.148C195.922 214.314 197.395 213.898 198.995 213.898C200.217 213.898 201.235 214.106 202.049 214.523C202.873 214.93 203.536 215.441 204.038 216.057C204.549 216.663 204.937 217.259 205.202 217.847H205.387V206.909H211.424V236H205.458V232.506H205.202C204.918 233.112 204.516 233.713 203.995 234.31C203.484 234.897 202.816 235.384 201.992 235.773C201.178 236.161 200.183 236.355 199.009 236.355ZM200.927 231.54C201.902 231.54 202.726 231.275 203.398 230.744C204.08 230.205 204.601 229.452 204.961 228.486C205.33 227.52 205.515 226.388 205.515 225.091C205.515 223.794 205.335 222.667 204.975 221.71C204.615 220.754 204.094 220.015 203.413 219.494C202.731 218.973 201.902 218.713 200.927 218.713C199.933 218.713 199.094 218.983 198.413 219.523C197.731 220.062 197.215 220.811 196.864 221.767C196.514 222.723 196.339 223.831 196.339 225.091C196.339 226.36 196.514 227.482 196.864 228.457C197.224 229.423 197.74 230.181 198.413 230.73C199.094 231.27 199.933 231.54 200.927 231.54ZM222.621 236.412C221.229 236.412 219.988 236.17 218.899 235.688C217.81 235.195 216.948 234.471 216.314 233.514C215.689 232.548 215.376 231.346 215.376 229.906C215.376 228.694 215.599 227.676 216.044 226.852C216.489 226.028 217.095 225.366 217.862 224.864C218.629 224.362 219.5 223.983 220.476 223.727C221.461 223.472 222.493 223.292 223.572 223.188C224.841 223.055 225.864 222.932 226.641 222.818C227.417 222.695 227.981 222.515 228.331 222.278C228.681 222.042 228.857 221.691 228.857 221.227V221.142C228.857 220.242 228.572 219.546 228.004 219.054C227.446 218.562 226.65 218.315 225.618 218.315C224.529 218.315 223.662 218.557 223.018 219.04C222.375 219.513 221.948 220.11 221.74 220.83L216.143 220.375C216.428 219.049 216.986 217.903 217.82 216.938C218.653 215.962 219.728 215.214 221.044 214.693C222.37 214.163 223.904 213.898 225.646 213.898C226.858 213.898 228.018 214.04 229.126 214.324C230.244 214.608 231.233 215.048 232.095 215.645C232.966 216.241 233.653 217.009 234.155 217.946C234.657 218.874 234.908 219.987 234.908 221.284V236H229.169V232.974H228.999C228.648 233.656 228.179 234.258 227.592 234.778C227.005 235.29 226.3 235.692 225.476 235.986C224.652 236.27 223.7 236.412 222.621 236.412ZM224.354 232.236C225.244 232.236 226.03 232.061 226.712 231.71C227.393 231.35 227.929 230.867 228.317 230.261C228.705 229.655 228.899 228.969 228.899 228.202V225.886C228.71 226.009 228.449 226.123 228.118 226.227C227.796 226.322 227.431 226.412 227.024 226.497C226.617 226.573 226.21 226.644 225.803 226.71C225.395 226.767 225.026 226.819 224.695 226.866C223.984 226.971 223.364 227.136 222.834 227.364C222.304 227.591 221.892 227.899 221.598 228.287C221.304 228.666 221.158 229.139 221.158 229.707C221.158 230.531 221.456 231.161 222.053 231.597C222.659 232.023 223.426 232.236 224.354 232.236ZM247.642 236.355C245.985 236.355 244.484 235.929 243.139 235.077C241.804 234.215 240.743 232.951 239.957 231.284C239.181 229.608 238.793 227.553 238.793 225.119C238.793 222.619 239.195 220.541 240 218.884C240.805 217.217 241.875 215.972 243.21 215.148C244.555 214.314 246.027 213.898 247.628 213.898C248.849 213.898 249.867 214.106 250.682 214.523C251.506 214.93 252.169 215.441 252.67 216.057C253.182 216.663 253.57 217.259 253.835 217.847H254.02V206.909H260.057V236H254.091V232.506H253.835C253.551 233.112 253.149 233.713 252.628 234.31C252.116 234.897 251.449 235.384 250.625 235.773C249.811 236.161 248.816 236.355 247.642 236.355ZM249.56 231.54C250.535 231.54 251.359 231.275 252.031 230.744C252.713 230.205 253.234 229.452 253.594 228.486C253.963 227.52 254.148 226.388 254.148 225.091C254.148 223.794 253.968 222.667 253.608 221.71C253.248 220.754 252.727 220.015 252.045 219.494C251.364 218.973 250.535 218.713 249.56 218.713C248.565 218.713 247.727 218.983 247.045 219.523C246.364 220.062 245.848 220.811 245.497 221.767C245.147 222.723 244.972 223.831 244.972 225.091C244.972 226.36 245.147 227.482 245.497 228.457C245.857 229.423 246.373 230.181 247.045 230.73C247.727 231.27 248.565 231.54 249.56 231.54ZM274.975 236.426C272.731 236.426 270.799 235.972 269.18 235.062C267.57 234.144 266.329 232.847 265.458 231.17C264.587 229.485 264.151 227.491 264.151 225.19C264.151 222.946 264.587 220.976 265.458 219.281C266.329 217.586 267.556 216.265 269.137 215.318C270.728 214.371 272.594 213.898 274.734 213.898C276.173 213.898 277.513 214.13 278.754 214.594C280.004 215.048 281.093 215.735 282.021 216.653C282.958 217.572 283.687 218.727 284.208 220.119C284.729 221.502 284.989 223.121 284.989 224.977V226.639H266.566V222.889H279.293C279.293 222.018 279.104 221.246 278.725 220.574C278.346 219.902 277.821 219.376 277.148 218.997C276.486 218.609 275.714 218.415 274.833 218.415C273.915 218.415 273.1 218.628 272.39 219.054C271.689 219.471 271.14 220.034 270.742 220.744C270.344 221.445 270.141 222.226 270.131 223.088V226.653C270.131 227.733 270.33 228.666 270.728 229.452C271.135 230.238 271.708 230.844 272.447 231.27C273.185 231.696 274.061 231.909 275.075 231.909C275.747 231.909 276.362 231.814 276.921 231.625C277.48 231.436 277.958 231.152 278.356 230.773C278.754 230.394 279.057 229.93 279.265 229.381L284.862 229.75C284.577 231.095 283.995 232.269 283.114 233.273C282.243 234.267 281.116 235.044 279.734 235.602C278.361 236.152 276.774 236.426 274.975 236.426ZM92.5994 268.403L87.0597 268.744C86.965 268.271 86.7614 267.845 86.4489 267.466C86.1364 267.078 85.7244 266.77 85.2131 266.543C84.7112 266.306 84.1098 266.188 83.4091 266.188C82.4716 266.188 81.6809 266.386 81.0369 266.784C80.393 267.172 80.071 267.693 80.071 268.347C80.071 268.867 80.2794 269.308 80.696 269.668C81.1127 270.027 81.8277 270.316 82.8409 270.534L86.7898 271.33C88.911 271.765 90.4924 272.466 91.5341 273.432C92.5758 274.398 93.0966 275.667 93.0966 277.239C93.0966 278.669 92.6752 279.923 91.8324 281.003C90.9991 282.082 89.8532 282.925 88.3949 283.531C86.946 284.128 85.2746 284.426 83.3807 284.426C80.4924 284.426 78.1913 283.825 76.4773 282.622C74.7727 281.41 73.7737 279.762 73.4801 277.679L79.4318 277.366C79.6117 278.247 80.0473 278.92 80.7386 279.384C81.4299 279.838 82.3153 280.065 83.3949 280.065C84.4555 280.065 85.3078 279.862 85.9517 279.455C86.6051 279.038 86.9366 278.503 86.946 277.849C86.9366 277.3 86.7045 276.85 86.25 276.5C85.7955 276.14 85.0947 275.866 84.1477 275.676L80.3693 274.923C78.2386 274.497 76.6525 273.759 75.6108 272.707C74.5786 271.656 74.0625 270.316 74.0625 268.688C74.0625 267.286 74.4413 266.079 75.1989 265.065C75.9659 264.052 77.0407 263.271 78.4233 262.722C79.8153 262.172 81.4441 261.898 83.3097 261.898C86.0653 261.898 88.2339 262.48 89.8153 263.645C91.4063 264.81 92.3343 266.396 92.5994 268.403ZM103.129 284.412C101.737 284.412 100.496 284.17 99.407 283.688C98.3179 283.195 97.4562 282.471 96.8217 281.514C96.1967 280.548 95.8842 279.346 95.8842 277.906C95.8842 276.694 96.1068 275.676 96.5518 274.852C96.9969 274.028 97.603 273.366 98.37 272.864C99.1371 272.362 100.008 271.983 100.984 271.727C101.969 271.472 103.001 271.292 104.08 271.188C105.349 271.055 106.372 270.932 107.148 270.818C107.925 270.695 108.488 270.515 108.839 270.278C109.189 270.042 109.364 269.691 109.364 269.227V269.142C109.364 268.242 109.08 267.546 108.512 267.054C107.953 266.562 107.158 266.315 106.126 266.315C105.037 266.315 104.17 266.557 103.526 267.04C102.882 267.513 102.456 268.11 102.248 268.83L96.6513 268.375C96.9354 267.049 97.4941 265.903 98.3274 264.938C99.1607 263.962 100.236 263.214 101.552 262.693C102.878 262.163 104.412 261.898 106.154 261.898C107.366 261.898 108.526 262.04 109.634 262.324C110.752 262.608 111.741 263.048 112.603 263.645C113.474 264.241 114.161 265.009 114.663 265.946C115.165 266.874 115.415 267.987 115.415 269.284V284H109.677V280.974H109.506C109.156 281.656 108.687 282.258 108.1 282.778C107.513 283.29 106.808 283.692 105.984 283.986C105.16 284.27 104.208 284.412 103.129 284.412ZM104.862 280.236C105.752 280.236 106.538 280.061 107.219 279.71C107.901 279.35 108.436 278.867 108.825 278.261C109.213 277.655 109.407 276.969 109.407 276.202V273.886C109.218 274.009 108.957 274.123 108.626 274.227C108.304 274.322 107.939 274.412 107.532 274.497C107.125 274.573 106.718 274.644 106.31 274.71C105.903 274.767 105.534 274.819 105.202 274.866C104.492 274.971 103.872 275.136 103.342 275.364C102.811 275.591 102.399 275.899 102.106 276.287C101.812 276.666 101.665 277.139 101.665 277.707C101.665 278.531 101.964 279.161 102.56 279.597C103.166 280.023 103.933 280.236 104.862 280.236ZM134.102 274.71V262.182H140.153V284H134.343V280.037H134.116C133.623 281.315 132.804 282.343 131.658 283.119C130.522 283.896 129.135 284.284 127.496 284.284C126.038 284.284 124.755 283.953 123.647 283.29C122.539 282.627 121.673 281.685 121.048 280.463C120.432 279.241 120.12 277.778 120.11 276.074V262.182H126.161V274.994C126.171 276.282 126.516 277.3 127.198 278.048C127.88 278.796 128.794 279.17 129.94 279.17C130.669 279.17 131.351 279.005 131.985 278.673C132.62 278.332 133.131 277.83 133.519 277.168C133.917 276.505 134.111 275.686 134.102 274.71ZM153.033 284.355C151.375 284.355 149.875 283.929 148.53 283.077C147.195 282.215 146.134 280.951 145.348 279.284C144.571 277.608 144.183 275.553 144.183 273.119C144.183 270.619 144.586 268.541 145.391 266.884C146.196 265.217 147.266 263.972 148.601 263.148C149.946 262.314 151.418 261.898 153.018 261.898C154.24 261.898 155.258 262.106 156.072 262.523C156.896 262.93 157.559 263.441 158.061 264.057C158.572 264.663 158.961 265.259 159.226 265.847H159.411V254.909H165.447V284H159.482V280.506H159.226C158.942 281.112 158.539 281.713 158.018 282.31C157.507 282.897 156.839 283.384 156.016 283.773C155.201 284.161 154.207 284.355 153.033 284.355ZM154.95 279.54C155.926 279.54 156.75 279.275 157.422 278.744C158.104 278.205 158.625 277.452 158.984 276.486C159.354 275.52 159.538 274.388 159.538 273.091C159.538 271.794 159.358 270.667 158.999 269.71C158.639 268.754 158.118 268.015 157.436 267.494C156.754 266.973 155.926 266.713 154.95 266.713C153.956 266.713 153.118 266.983 152.436 267.523C151.754 268.062 151.238 268.811 150.888 269.767C150.537 270.723 150.362 271.831 150.362 273.091C150.362 274.36 150.537 275.482 150.888 276.457C151.248 277.423 151.764 278.181 152.436 278.73C153.118 279.27 153.956 279.54 154.95 279.54ZM176.644 284.412C175.252 284.412 174.012 284.17 172.923 283.688C171.834 283.195 170.972 282.471 170.337 281.514C169.712 280.548 169.4 279.346 169.4 277.906C169.4 276.694 169.622 275.676 170.067 274.852C170.513 274.028 171.119 273.366 171.886 272.864C172.653 272.362 173.524 271.983 174.499 271.727C175.484 271.472 176.516 271.292 177.596 271.188C178.865 271.055 179.888 270.932 180.664 270.818C181.441 270.695 182.004 270.515 182.354 270.278C182.705 270.042 182.88 269.691 182.88 269.227V269.142C182.88 268.242 182.596 267.546 182.028 267.054C181.469 266.562 180.674 266.315 179.641 266.315C178.552 266.315 177.686 266.557 177.042 267.04C176.398 267.513 175.972 268.11 175.763 268.83L170.167 268.375C170.451 267.049 171.01 265.903 171.843 264.938C172.676 263.962 173.751 263.214 175.067 262.693C176.393 262.163 177.927 261.898 179.67 261.898C180.882 261.898 182.042 262.04 183.15 262.324C184.267 262.608 185.257 263.048 186.119 263.645C186.99 264.241 187.676 265.009 188.178 265.946C188.68 266.874 188.931 267.987 188.931 269.284V284H183.192V280.974H183.022C182.672 281.656 182.203 282.258 181.616 282.778C181.029 283.29 180.323 283.692 179.499 283.986C178.675 284.27 177.724 284.412 176.644 284.412ZM178.377 280.236C179.267 280.236 180.053 280.061 180.735 279.71C181.417 279.35 181.952 278.867 182.34 278.261C182.728 277.655 182.923 276.969 182.923 276.202V273.886C182.733 274.009 182.473 274.123 182.141 274.227C181.819 274.322 181.455 274.412 181.048 274.497C180.64 274.573 180.233 274.644 179.826 274.71C179.419 274.767 179.049 274.819 178.718 274.866C178.008 274.971 177.388 275.136 176.857 275.364C176.327 275.591 175.915 275.899 175.621 276.287C175.328 276.666 175.181 277.139 175.181 277.707C175.181 278.531 175.479 279.161 176.076 279.597C176.682 280.023 177.449 280.236 178.377 280.236ZM177.724 259.369L180.735 252.906H186.332L181.999 259.369H177.724ZM213.185 262.182L205.558 284H198.739L191.112 262.182H197.504L202.035 277.793H202.262L206.779 262.182H213.185ZM225.522 284.426C223.278 284.426 221.346 283.972 219.727 283.062C218.117 282.144 216.876 280.847 216.005 279.17C215.134 277.485 214.698 275.491 214.698 273.19C214.698 270.946 215.134 268.976 216.005 267.281C216.876 265.586 218.103 264.265 219.684 263.318C221.275 262.371 223.14 261.898 225.281 261.898C226.72 261.898 228.06 262.13 229.3 262.594C230.55 263.048 231.639 263.735 232.567 264.653C233.505 265.572 234.234 266.727 234.755 268.119C235.276 269.502 235.536 271.121 235.536 272.977V274.639H217.113V270.889H229.84C229.84 270.018 229.651 269.246 229.272 268.574C228.893 267.902 228.368 267.376 227.695 266.997C227.032 266.609 226.261 266.415 225.38 266.415C224.461 266.415 223.647 266.628 222.937 267.054C222.236 267.471 221.687 268.034 221.289 268.744C220.891 269.445 220.688 270.226 220.678 271.088V274.653C220.678 275.733 220.877 276.666 221.275 277.452C221.682 278.238 222.255 278.844 222.994 279.27C223.732 279.696 224.608 279.909 225.621 279.909C226.294 279.909 226.909 279.814 227.468 279.625C228.027 279.436 228.505 279.152 228.903 278.773C229.3 278.394 229.603 277.93 229.812 277.381L235.408 277.75C235.124 279.095 234.542 280.269 233.661 281.273C232.79 282.267 231.663 283.044 230.281 283.602C228.907 284.152 227.321 284.426 225.522 284.426ZM245.536 254.909V284H239.485V254.909H245.536Z" fill="#05554F"/>
<path d="M137.5 92C137.5 120.995 160 144.5 160 144.5C160 144.5 182.5 120.995 182.5 92C182.5 63.005 160 39.5 160 39.5C160 39.5 137.5 63.005 137.5 92Z" stroke="#05554F" stroke-width="11" stroke-linecap="round" stroke-linejoin="round"/>
<path d="M117.475 77C100.863 69.845 85 69.5 85 69.5C85 69.5 85.72 102.357 106.427 123.072C127.135 143.787 160 144.5 160 144.5C160 144.5 192.857 143.78 213.572 123.072C234.287 102.365 235 69.5 235 69.5C235 69.5 219.145 69.845 202.525 77M160.15 144.5C158.905 154.497 164.95 174.5 186.355 174.5C201.317 174.5 208.802 159.5 235 174.5C232 159.5 226 149.9 217.247 144.5M159.843 144.5C161.095 154.497 155.043 174.5 133.653 174.5C118.675 174.5 111.198 159.5 85 174.5C88 159.5 94 149.9 102.753 144.5" stroke="#05554F" stroke-width="11" stroke-linecap="round" stroke-linejoin="round"/>
</svg>
