<svg width="320" height="320" viewBox="0 0 320 320" fill="none" xmlns="http://www.w3.org/2000/svg">
<rect x="5" y="5" width="310" height="310" rx="15" fill="#FDF2EB"/>
<rect x="5" y="5" width="310" height="310" rx="15" stroke="#05554F" stroke-width="10"/>
<path d="M102.701 206.909V236H97.3881L84.7319 217.69H84.5188V236H78.3683V206.909H83.766L96.3228 225.205H96.5785V206.909H102.701ZM121.66 226.71V214.182H127.711V236H121.902V232.037H121.674C121.182 233.315 120.363 234.343 119.217 235.119C118.081 235.896 116.693 236.284 115.055 236.284C113.597 236.284 112.314 235.953 111.206 235.29C110.098 234.627 109.231 233.685 108.606 232.463C107.991 231.241 107.678 229.778 107.669 228.074V214.182H113.72V226.994C113.729 228.282 114.075 229.3 114.757 230.048C115.439 230.796 116.352 231.17 117.498 231.17C118.227 231.17 118.909 231.005 119.544 230.673C120.178 230.332 120.69 229.83 121.078 229.168C121.475 228.505 121.67 227.686 121.66 226.71ZM144.157 214.182V218.727H131.017V214.182H144.157ZM134 208.955H140.051V229.295C140.051 229.854 140.137 230.29 140.307 230.602C140.478 230.905 140.714 231.118 141.017 231.241C141.33 231.365 141.69 231.426 142.097 231.426C142.381 231.426 142.665 231.402 142.949 231.355C143.233 231.298 143.451 231.256 143.603 231.227L144.554 235.73C144.251 235.825 143.825 235.934 143.276 236.057C142.727 236.189 142.059 236.27 141.273 236.298C139.815 236.355 138.536 236.161 137.438 235.716C136.349 235.271 135.501 234.58 134.895 233.642C134.289 232.705 133.991 231.521 134 230.091V208.955ZM148.098 236V214.182H153.965V217.989H154.192C154.59 216.634 155.257 215.612 156.195 214.92C157.132 214.22 158.212 213.869 159.434 213.869C159.737 213.869 160.063 213.888 160.414 213.926C160.764 213.964 161.072 214.016 161.337 214.082V219.452C161.053 219.366 160.66 219.291 160.158 219.224C159.656 219.158 159.197 219.125 158.78 219.125C157.89 219.125 157.095 219.319 156.394 219.707C155.703 220.086 155.153 220.616 154.746 221.298C154.348 221.98 154.15 222.766 154.15 223.656V236H148.098ZM164.466 236V214.182H170.517V236H164.466ZM167.505 211.369C166.606 211.369 165.834 211.071 165.19 210.474C164.556 209.868 164.238 209.144 164.238 208.301C164.238 207.468 164.556 206.753 165.19 206.156C165.834 205.55 166.606 205.247 167.505 205.247C168.405 205.247 169.172 205.55 169.806 206.156C170.45 206.753 170.772 207.468 170.772 208.301C170.772 209.144 170.45 209.868 169.806 210.474C169.172 211.071 168.405 211.369 167.505 211.369ZM185.222 236.426C182.987 236.426 181.065 235.953 179.455 235.006C177.855 234.049 176.623 232.723 175.762 231.028C174.909 229.333 174.483 227.383 174.483 225.176C174.483 222.941 174.914 220.981 175.776 219.295C176.647 217.6 177.883 216.279 179.483 215.332C181.084 214.376 182.987 213.898 185.194 213.898C187.097 213.898 188.764 214.243 190.194 214.935C191.623 215.626 192.755 216.597 193.588 217.847C194.422 219.097 194.881 220.564 194.966 222.25H189.256C189.095 221.161 188.669 220.285 187.978 219.622C187.296 218.95 186.401 218.614 185.293 218.614C184.355 218.614 183.536 218.869 182.836 219.381C182.144 219.883 181.605 220.616 181.216 221.582C180.828 222.548 180.634 223.718 180.634 225.091C180.634 226.483 180.823 227.667 181.202 228.642C181.59 229.617 182.135 230.361 182.836 230.872C183.536 231.384 184.355 231.639 185.293 231.639C185.984 231.639 186.605 231.497 187.154 231.213C187.712 230.929 188.172 230.517 188.532 229.977C188.901 229.428 189.142 228.77 189.256 228.003H194.966C194.872 229.67 194.417 231.137 193.603 232.406C192.798 233.666 191.685 234.651 190.265 235.361C188.844 236.071 187.163 236.426 185.222 236.426ZM183.801 235.886H186.586L186.358 237.122C187.334 237.274 188.129 237.638 188.745 238.216C189.37 238.794 189.687 239.58 189.696 240.574C189.706 241.985 189.052 243.107 187.736 243.94C186.42 244.783 184.573 245.205 182.196 245.205L182.14 242.506C183.333 242.506 184.266 242.359 184.938 242.065C185.62 241.781 185.975 241.336 186.003 240.73C186.022 240.152 185.8 239.712 185.336 239.409C184.872 239.106 184.147 238.893 183.162 238.77L183.801 235.886ZM205.062 236.412C203.67 236.412 202.43 236.17 201.341 235.688C200.252 235.195 199.39 234.471 198.755 233.514C198.13 232.548 197.818 231.346 197.818 229.906C197.818 228.694 198.04 227.676 198.485 226.852C198.931 226.028 199.537 225.366 200.304 224.864C201.071 224.362 201.942 223.983 202.917 223.727C203.902 223.472 204.934 223.292 206.014 223.188C207.283 223.055 208.306 222.932 209.082 222.818C209.859 222.695 210.422 222.515 210.772 222.278C211.123 222.042 211.298 221.691 211.298 221.227V221.142C211.298 220.242 211.014 219.546 210.446 219.054C209.887 218.562 209.092 218.315 208.059 218.315C206.97 218.315 206.104 218.557 205.46 219.04C204.816 219.513 204.39 220.11 204.181 220.83L198.585 220.375C198.869 219.049 199.428 217.903 200.261 216.938C201.094 215.962 202.169 215.214 203.485 214.693C204.811 214.163 206.345 213.898 208.088 213.898C209.3 213.898 210.46 214.04 211.568 214.324C212.685 214.608 213.675 215.048 214.537 215.645C215.408 216.241 216.094 217.009 216.596 217.946C217.098 218.874 217.349 219.987 217.349 221.284V236H211.61V232.974H211.44C211.09 233.656 210.621 234.258 210.034 234.778C209.447 235.29 208.741 235.692 207.917 235.986C207.093 236.27 206.142 236.412 205.062 236.412ZM206.795 232.236C207.685 232.236 208.471 232.061 209.153 231.71C209.835 231.35 210.37 230.867 210.758 230.261C211.146 229.655 211.341 228.969 211.341 228.202V225.886C211.151 226.009 210.891 226.123 210.559 226.227C210.237 226.322 209.873 226.412 209.466 226.497C209.058 226.573 208.651 226.644 208.244 226.71C207.837 226.767 207.467 226.819 207.136 226.866C206.426 226.971 205.806 227.136 205.275 227.364C204.745 227.591 204.333 227.899 204.039 228.287C203.746 228.666 203.599 229.139 203.599 229.707C203.599 230.531 203.897 231.161 204.494 231.597C205.1 232.023 205.867 232.236 206.795 232.236ZM204.252 211.497L200.886 211.455C200.886 209.646 201.331 208.259 202.221 207.293C203.121 206.327 204.215 205.839 205.502 205.83C206.165 205.83 206.734 205.938 207.207 206.156C207.69 206.365 208.121 206.611 208.5 206.895C208.888 207.179 209.257 207.43 209.608 207.648C209.958 207.856 210.337 207.96 210.744 207.96C211.293 207.951 211.71 207.747 211.994 207.349C212.288 206.942 212.434 206.412 212.434 205.759L215.744 205.858C215.725 207.648 215.27 209.03 214.38 210.006C213.49 210.972 212.406 211.459 211.127 211.469C210.417 211.469 209.821 211.365 209.338 211.156C208.864 210.938 208.448 210.692 208.088 210.418C207.728 210.134 207.377 209.883 207.037 209.665C206.696 209.447 206.312 209.338 205.886 209.338C205.394 209.338 204.996 209.532 204.693 209.92C204.399 210.309 204.252 210.834 204.252 211.497ZM231.902 236.426C229.695 236.426 227.787 235.957 226.177 235.02C224.577 234.073 223.341 232.757 222.47 231.071C221.599 229.376 221.163 227.411 221.163 225.176C221.163 222.922 221.599 220.953 222.47 219.267C223.341 217.572 224.577 216.256 226.177 215.318C227.787 214.371 229.695 213.898 231.902 213.898C234.108 213.898 236.011 214.371 237.612 215.318C239.222 216.256 240.462 217.572 241.333 219.267C242.205 220.953 242.64 222.922 242.64 225.176C242.64 227.411 242.205 229.376 241.333 231.071C240.462 232.757 239.222 234.073 237.612 235.02C236.011 235.957 234.108 236.426 231.902 236.426ZM231.93 231.739C232.934 231.739 233.772 231.455 234.444 230.886C235.117 230.309 235.623 229.523 235.964 228.528C236.315 227.534 236.49 226.402 236.49 225.134C236.49 223.865 236.315 222.733 235.964 221.739C235.623 220.744 235.117 219.958 234.444 219.381C233.772 218.803 232.934 218.514 231.93 218.514C230.917 218.514 230.065 218.803 229.373 219.381C228.691 219.958 228.175 220.744 227.825 221.739C227.484 222.733 227.314 223.865 227.314 225.134C227.314 226.402 227.484 227.534 227.825 228.528C228.175 229.523 228.691 230.309 229.373 230.886C230.065 231.455 230.917 231.739 231.93 231.739ZM79.272 284.426C77.0277 284.426 75.0959 283.972 73.4766 283.062C71.8667 282.144 70.6262 280.847 69.755 279.17C68.8838 277.485 68.4482 275.491 68.4482 273.19C68.4482 270.946 68.8838 268.976 69.755 267.281C70.6262 265.586 71.8525 264.265 73.4339 263.318C75.0249 262.371 76.8904 261.898 79.0305 261.898C80.4699 261.898 81.8099 262.13 83.0504 262.594C84.3004 263.048 85.3894 263.735 86.3175 264.653C87.255 265.572 87.9841 266.727 88.505 268.119C89.0258 269.502 89.2862 271.121 89.2862 272.977V274.639H70.8629V270.889H83.5902C83.5902 270.018 83.4008 269.246 83.022 268.574C82.6432 267.902 82.1177 267.376 81.4453 266.997C80.7824 266.609 80.0107 266.415 79.13 266.415C78.2114 266.415 77.397 266.628 76.6868 267.054C75.986 267.471 75.4368 268.034 75.0391 268.744C74.6413 269.445 74.4377 270.226 74.4283 271.088V274.653C74.4283 275.733 74.6271 276.666 75.0249 277.452C75.4321 278.238 76.005 278.844 76.7436 279.27C77.4822 279.696 78.3582 279.909 79.3714 279.909C80.0438 279.909 80.6593 279.814 81.218 279.625C81.7768 279.436 82.255 279.152 82.6527 278.773C83.0504 278.394 83.3535 277.93 83.5618 277.381L89.1584 277.75C88.8743 279.095 88.2919 280.269 87.4112 281.273C86.54 282.267 85.4131 283.044 84.0305 283.602C82.6574 284.152 81.0713 284.426 79.272 284.426ZM111.388 268.403L105.849 268.744C105.754 268.271 105.55 267.845 105.238 267.466C104.925 267.078 104.513 266.77 104.002 266.543C103.5 266.306 102.899 266.188 102.198 266.188C101.261 266.188 100.47 266.386 99.826 266.784C99.1821 267.172 98.8601 267.693 98.8601 268.347C98.8601 268.867 99.0684 269.308 99.4851 269.668C99.9018 270.027 100.617 270.316 101.63 270.534L105.579 271.33C107.7 271.765 109.281 272.466 110.323 273.432C111.365 274.398 111.886 275.667 111.886 277.239C111.886 278.669 111.464 279.923 110.621 281.003C109.788 282.082 108.642 282.925 107.184 283.531C105.735 284.128 104.064 284.426 102.17 284.426C99.2815 284.426 96.9804 283.825 95.2663 282.622C93.5618 281.41 92.5627 279.762 92.2692 277.679L98.2209 277.366C98.4008 278.247 98.8364 278.92 99.5277 279.384C100.219 279.838 101.104 280.065 102.184 280.065C103.245 280.065 104.097 279.862 104.741 279.455C105.394 279.038 105.726 278.503 105.735 277.849C105.726 277.3 105.494 276.85 105.039 276.5C104.585 276.14 103.884 275.866 102.937 275.676L99.1584 274.923C97.0277 274.497 95.4415 273.759 94.3999 272.707C93.3677 271.656 92.8516 270.316 92.8516 268.688C92.8516 267.286 93.2304 266.079 93.9879 265.065C94.755 264.052 95.8298 263.271 97.2124 262.722C98.6044 262.172 100.233 261.898 102.099 261.898C104.854 261.898 107.023 262.48 108.604 263.645C110.195 264.81 111.123 266.396 111.388 268.403ZM115.696 292.182V262.182H121.662V265.847H121.932C122.197 265.259 122.58 264.663 123.082 264.057C123.594 263.441 124.257 262.93 125.071 262.523C125.895 262.106 126.918 261.898 128.139 261.898C129.73 261.898 131.198 262.314 132.543 263.148C133.887 263.972 134.962 265.217 135.767 266.884C136.572 268.541 136.974 270.619 136.974 273.119C136.974 275.553 136.581 277.608 135.795 279.284C135.019 280.951 133.958 282.215 132.614 283.077C131.278 283.929 129.782 284.355 128.125 284.355C126.951 284.355 125.952 284.161 125.128 283.773C124.313 283.384 123.646 282.897 123.125 282.31C122.604 281.713 122.206 281.112 121.932 280.506H121.747V292.182H115.696ZM121.619 273.091C121.619 274.388 121.799 275.52 122.159 276.486C122.519 277.452 123.04 278.205 123.722 278.744C124.403 279.275 125.232 279.54 126.207 279.54C127.192 279.54 128.026 279.27 128.707 278.73C129.389 278.181 129.905 277.423 130.256 276.457C130.616 275.482 130.795 274.36 130.795 273.091C130.795 271.831 130.62 270.723 130.27 269.767C129.92 268.811 129.403 268.062 128.722 267.523C128.04 266.983 127.202 266.713 126.207 266.713C125.223 266.713 124.389 266.973 123.707 267.494C123.035 268.015 122.519 268.754 122.159 269.71C121.799 270.667 121.619 271.794 121.619 273.091ZM150.866 284.426C148.66 284.426 146.752 283.957 145.142 283.02C143.542 282.073 142.306 280.757 141.435 279.071C140.563 277.376 140.128 275.411 140.128 273.176C140.128 270.922 140.563 268.953 141.435 267.267C142.306 265.572 143.542 264.256 145.142 263.318C146.752 262.371 148.66 261.898 150.866 261.898C153.073 261.898 154.976 262.371 156.577 263.318C158.187 264.256 159.427 265.572 160.298 267.267C161.17 268.953 161.605 270.922 161.605 273.176C161.605 275.411 161.17 277.376 160.298 279.071C159.427 280.757 158.187 282.073 156.577 283.02C154.976 283.957 153.073 284.426 150.866 284.426ZM150.895 279.739C151.899 279.739 152.737 279.455 153.409 278.886C154.081 278.309 154.588 277.523 154.929 276.528C155.279 275.534 155.455 274.402 155.455 273.134C155.455 271.865 155.279 270.733 154.929 269.739C154.588 268.744 154.081 267.958 153.409 267.381C152.737 266.803 151.899 266.514 150.895 266.514C149.882 266.514 149.029 266.803 148.338 267.381C147.656 267.958 147.14 268.744 146.79 269.739C146.449 270.733 146.278 271.865 146.278 273.134C146.278 274.402 146.449 275.534 146.79 276.528C147.14 277.523 147.656 278.309 148.338 278.886C149.029 279.455 149.882 279.739 150.895 279.739ZM165.54 284V262.182H171.406V265.989H171.634C172.031 264.634 172.699 263.612 173.636 262.92C174.574 262.22 175.653 261.869 176.875 261.869C177.178 261.869 177.505 261.888 177.855 261.926C178.205 261.964 178.513 262.016 178.778 262.082V267.452C178.494 267.366 178.101 267.291 177.599 267.224C177.098 267.158 176.638 267.125 176.222 267.125C175.331 267.125 174.536 267.319 173.835 267.707C173.144 268.086 172.595 268.616 172.188 269.298C171.79 269.98 171.591 270.766 171.591 271.656V284H165.54ZM194.606 262.182V266.727H181.467V262.182H194.606ZM184.45 256.955H190.501V277.295C190.501 277.854 190.586 278.29 190.756 278.602C190.927 278.905 191.164 279.118 191.467 279.241C191.779 279.365 192.139 279.426 192.546 279.426C192.83 279.426 193.114 279.402 193.398 279.355C193.683 279.298 193.9 279.256 194.052 279.227L195.004 283.73C194.701 283.825 194.274 283.934 193.725 284.057C193.176 284.189 192.508 284.27 191.722 284.298C190.264 284.355 188.986 284.161 187.887 283.716C186.798 283.271 185.951 282.58 185.344 281.642C184.738 280.705 184.44 279.521 184.45 278.091V256.955ZM198.548 284V262.182H204.599V284H198.548ZM201.587 259.369C200.688 259.369 199.916 259.071 199.272 258.474C198.638 257.868 198.32 257.144 198.32 256.301C198.32 255.468 198.638 254.753 199.272 254.156C199.916 253.55 200.688 253.247 201.587 253.247C202.487 253.247 203.254 253.55 203.888 254.156C204.532 254.753 204.854 255.468 204.854 256.301C204.854 257.144 204.532 257.868 203.888 258.474C203.254 259.071 202.487 259.369 201.587 259.369ZM229.787 262.182L222.159 284H215.341L207.713 262.182H214.105L218.636 277.793H218.864L223.381 262.182H229.787ZM238.519 284.412C237.127 284.412 235.887 284.17 234.798 283.688C233.709 283.195 232.847 282.471 232.212 281.514C231.587 280.548 231.275 279.346 231.275 277.906C231.275 276.694 231.497 275.676 231.942 274.852C232.388 274.028 232.994 273.366 233.761 272.864C234.528 272.362 235.399 271.983 236.374 271.727C237.359 271.472 238.391 271.292 239.471 271.188C240.74 271.055 241.763 270.932 242.539 270.818C243.316 270.695 243.879 270.515 244.229 270.278C244.58 270.042 244.755 269.691 244.755 269.227V269.142C244.755 268.242 244.471 267.546 243.903 267.054C243.344 266.562 242.549 266.315 241.516 266.315C240.427 266.315 239.561 266.557 238.917 267.04C238.273 267.513 237.847 268.11 237.638 268.83L232.042 268.375C232.326 267.049 232.885 265.903 233.718 264.938C234.551 263.962 235.626 263.214 236.942 262.693C238.268 262.163 239.802 261.898 241.545 261.898C242.757 261.898 243.917 262.04 245.025 262.324C246.142 262.608 247.132 263.048 247.994 263.645C248.865 264.241 249.551 265.009 250.053 265.946C250.555 266.874 250.806 267.987 250.806 269.284V284H245.067V280.974H244.897C244.547 281.656 244.078 282.258 243.491 282.778C242.904 283.29 242.198 283.692 241.374 283.986C240.55 284.27 239.599 284.412 238.519 284.412ZM240.252 280.236C241.142 280.236 241.928 280.061 242.61 279.71C243.292 279.35 243.827 278.867 244.215 278.261C244.603 277.655 244.798 276.969 244.798 276.202V273.886C244.608 274.009 244.348 274.123 244.016 274.227C243.694 274.322 243.33 274.412 242.923 274.497C242.515 274.573 242.108 274.644 241.701 274.71C241.294 274.767 240.924 274.819 240.593 274.866C239.883 274.971 239.263 275.136 238.732 275.364C238.202 275.591 237.79 275.899 237.496 276.287C237.203 276.666 237.056 277.139 237.056 277.707C237.056 278.531 237.354 279.161 237.951 279.597C238.557 280.023 239.324 280.236 240.252 280.236Z" fill="#05554F"/>
<path d="M225.625 50.75C225.625 55.7228 223.65 60.4919 220.133 64.0083C216.617 67.5246 211.848 69.5 206.875 69.5C201.902 69.5 197.133 67.5246 193.617 64.0083C190.1 60.4919 188.125 55.7228 188.125 50.75C188.125 45.7772 190.1 41.0081 193.617 37.4917C197.133 33.9754 201.902 32 206.875 32C211.848 32 216.617 33.9754 220.133 37.4917C223.65 41.0081 225.625 45.7772 225.625 50.75Z" fill="#05554F"/>
<path fill-rule="evenodd" clip-rule="evenodd" d="M143.515 61.475C145.304 61.2034 147.114 61.0955 148.922 61.1525C149.522 61.1825 150.197 61.2275 150.97 61.3025C168.842 63.1625 182.095 76.5725 190.93 89.8175L191.403 90.5225C193.628 93.8609 196.644 96.5981 200.182 98.4913C203.72 100.384 207.67 101.375 211.683 101.375H225.625C227.117 101.375 228.548 101.968 229.602 103.023C230.657 104.077 231.25 105.508 231.25 107C231.25 108.492 230.657 109.923 229.602 110.977C228.548 112.032 227.117 112.625 225.625 112.625H211.675C205.811 112.625 200.037 111.177 194.866 108.41C189.696 105.643 185.288 101.642 182.035 96.7625L181.57 96.0575C179.573 93.0383 177.378 90.1546 175 87.425L160.87 105.088C157.66 109.093 155.515 111.793 154.067 114.013C152.657 116.158 152.26 117.35 152.155 118.258C151.975 119.758 152.17 121.28 152.702 122.69C153.033 123.545 153.715 124.61 155.598 126.343C157.548 128.143 160.292 130.227 164.387 133.317L165.1 133.865C170.5 137.96 174.25 140.795 176.838 144.575C178.315 146.727 179.478 149.075 180.31 151.55C181.757 155.9 181.757 160.595 181.757 167.375V182C181.757 183.492 181.165 184.923 180.11 185.977C179.055 187.032 177.624 187.625 176.132 187.625C174.641 187.625 173.21 187.032 172.155 185.977C171.1 184.923 170.507 183.492 170.507 182V168.275C170.507 160.25 170.432 157.513 169.637 155.113C169.142 153.628 168.443 152.219 167.56 150.928C166.135 148.843 163.99 147.14 157.585 142.287L157.375 142.13C153.55 139.235 150.377 136.827 147.985 134.622C145.48 132.32 143.403 129.86 142.195 126.702C141.01 123.598 140.594 120.253 140.98 116.952C141.37 113.592 142.788 110.69 144.655 107.847C146.433 105.132 148.923 102.013 151.915 98.27L166.795 79.6775C161.643 75.755 155.965 73.145 149.815 72.5075C149.356 72.4591 148.896 72.424 148.435 72.4025C147.306 72.3762 146.176 72.4515 145.06 72.6275C137.073 73.7375 129.07 78.1775 111.685 88.055L100.915 94.1675C99.6181 94.9055 98.0811 95.098 96.6423 94.7028C95.2034 94.3075 93.9805 93.3569 93.2425 92.06C92.5045 90.7631 92.312 89.2261 92.7072 87.7873C93.1025 86.3484 94.0531 85.1255 95.35 84.3875L106.12 78.275L107.26 77.6225C123.16 68.5925 133.128 62.9225 143.523 61.49M139.225 140.187C140.37 141.143 141.09 142.513 141.225 143.998C141.36 145.484 140.899 146.962 139.945 148.108L132.445 157.115L131.717 157.985C126.903 163.767 123.37 168.02 118.435 170.33C113.5 172.64 107.972 172.64 100.435 172.632H90.625C89.1332 172.632 87.7024 172.04 86.6475 170.985C85.5926 169.93 85 168.499 85 167.007C85 165.516 85.5926 164.085 86.6475 163.03C87.7024 161.975 89.1332 161.382 90.625 161.382H99.31C108.475 161.382 111.28 161.255 113.658 160.145C116.043 159.028 117.932 156.95 123.798 149.915L131.298 140.907C131.77 140.339 132.351 139.87 133.005 139.526C133.66 139.182 134.376 138.971 135.112 138.904C135.848 138.837 136.59 138.916 137.296 139.136C138.002 139.357 138.657 139.714 139.225 140.187Z" fill="#05554F"/>
</svg>
