<svg width="320" height="320" viewBox="0 0 320 320" fill="none" xmlns="http://www.w3.org/2000/svg">
<rect x="5" y="5" width="310" height="310" rx="15" fill="#FDF2EB"/>
<rect x="5" y="5" width="310" height="310" rx="15" stroke="#05554F" stroke-width="10"/>
<path d="M195.297 113.376C204.719 103.964 209.922 91.4271 209.922 78.1174C209.922 64.7902 204.736 52.2707 195.297 42.8591C185.875 33.4475 173.324 28.25 160 28.25C146.676 28.25 134.125 33.4299 124.703 42.8591C115.281 52.2882 110.078 64.7902 110.078 78.1174C110.078 89.32 113.752 99.9608 120.52 108.652C121.803 110.303 123.191 111.866 124.686 113.376C126.18 114.868 127.762 116.255 129.396 117.537C136.357 122.945 144.566 126.387 153.32 127.546V146.246H133.281C132.508 146.246 131.875 146.878 131.875 147.651V158.186C131.875 158.959 132.508 159.591 133.281 159.591H153.32V184.174C153.32 184.946 153.953 185.578 154.727 185.578H165.273C166.047 185.578 166.68 184.946 166.68 184.174V159.591H186.719C187.492 159.591 188.125 158.959 188.125 158.186V147.651C188.125 146.878 187.492 146.246 186.719 146.246H166.68V127.546C177.49 126.106 187.457 121.207 195.297 113.376ZM160 114.64C150.227 114.64 141.068 110.847 134.143 103.947C127.234 97.046 123.438 87.8802 123.438 78.1174C123.438 68.3547 127.234 59.2064 134.143 52.2882C141.051 45.37 150.227 41.5948 160 41.5948C169.773 41.5948 178.932 45.3875 185.857 52.2882C192.766 59.1889 196.562 68.3547 196.562 78.1174C196.562 87.8802 192.766 97.0284 185.857 103.947C178.932 110.847 169.773 114.64 160 114.64Z" fill="#05554F"/>
<path d="M87.5479 215.276C87.4343 214.13 86.9466 213.24 86.0849 212.605C85.2231 211.971 84.0536 211.653 82.5763 211.653C81.5726 211.653 80.725 211.795 80.0337 212.08C79.3424 212.354 78.8121 212.738 78.4428 213.23C78.083 213.723 77.9031 214.281 77.9031 214.906C77.8841 215.427 77.993 215.882 78.2298 216.27C78.476 216.658 78.8121 216.994 79.2383 217.278C79.6644 217.553 80.1568 217.795 80.7156 218.003C81.2743 218.202 81.8709 218.372 82.5053 218.514L85.119 219.139C86.3879 219.423 87.5527 219.802 88.6133 220.276C89.6739 220.749 90.5924 221.331 91.369 222.023C92.1455 222.714 92.7468 223.528 93.1729 224.466C93.6085 225.403 93.8311 226.478 93.8406 227.69C93.8311 229.471 93.3765 231.014 92.4769 232.321C91.5868 233.618 90.2989 234.627 88.6133 235.347C86.9371 236.057 84.9154 236.412 82.5479 236.412C80.1995 236.412 78.154 236.052 76.4116 235.332C74.6786 234.613 73.3245 233.547 72.3491 232.136C71.3832 230.716 70.8765 228.959 70.8292 226.866H76.7809C76.8472 227.842 77.1265 228.656 77.619 229.31C78.1209 229.954 78.7885 230.441 79.6218 230.773C80.4646 231.095 81.4163 231.256 82.4769 231.256C83.5186 231.256 84.4229 231.104 85.19 230.801C85.9665 230.498 86.5678 230.077 86.994 229.537C87.4201 228.997 87.6332 228.377 87.6332 227.676C87.6332 227.023 87.439 226.473 87.0508 226.028C86.672 225.583 86.1133 225.205 85.3746 224.892C84.6455 224.58 83.7506 224.295 82.69 224.04L79.5224 223.244C77.0697 222.648 75.1332 221.715 73.7127 220.446C72.2923 219.177 71.5868 217.468 71.5962 215.318C71.5868 213.557 72.0555 212.018 73.0025 210.702C73.9589 209.385 75.2705 208.358 76.9371 207.619C78.6038 206.881 80.4978 206.511 82.619 206.511C84.7781 206.511 86.6625 206.881 88.2724 207.619C89.8917 208.358 91.1512 209.385 92.0508 210.702C92.9504 212.018 93.4144 213.543 93.4428 215.276H87.5479ZM104.086 236.412C102.694 236.412 101.453 236.17 100.364 235.688C99.275 235.195 98.4132 234.471 97.7788 233.514C97.1538 232.548 96.8413 231.346 96.8413 229.906C96.8413 228.694 97.0638 227.676 97.5089 226.852C97.954 226.028 98.56 225.366 99.3271 224.864C100.094 224.362 100.965 223.983 101.941 223.727C102.926 223.472 103.958 223.292 105.037 223.188C106.306 223.055 107.329 222.932 108.105 222.818C108.882 222.695 109.445 222.515 109.796 222.278C110.146 222.042 110.321 221.691 110.321 221.227V221.142C110.321 220.242 110.037 219.546 109.469 219.054C108.91 218.562 108.115 218.315 107.083 218.315C105.994 218.315 105.127 218.557 104.483 219.04C103.839 219.513 103.413 220.11 103.205 220.83L97.6083 220.375C97.8924 219.049 98.4511 217.903 99.2844 216.938C100.118 215.962 101.193 215.214 102.509 214.693C103.835 214.163 105.369 213.898 107.111 213.898C108.323 213.898 109.483 214.04 110.591 214.324C111.709 214.608 112.698 215.048 113.56 215.645C114.431 216.241 115.118 217.009 115.62 217.946C116.122 218.874 116.373 219.987 116.373 221.284V236H110.634V232.974H110.463C110.113 233.656 109.644 234.258 109.057 234.778C108.47 235.29 107.765 235.692 106.941 235.986C106.117 236.27 105.165 236.412 104.086 236.412ZM105.819 232.236C106.709 232.236 107.495 232.061 108.176 231.71C108.858 231.35 109.393 230.867 109.782 230.261C110.17 229.655 110.364 228.969 110.364 228.202V225.886C110.175 226.009 109.914 226.123 109.583 226.227C109.261 226.322 108.896 226.412 108.489 226.497C108.082 226.573 107.675 226.644 107.267 226.71C106.86 226.767 106.491 226.819 106.159 226.866C105.449 226.971 104.829 227.136 104.299 227.364C103.768 227.591 103.356 227.899 103.063 228.287C102.769 228.666 102.623 229.139 102.623 229.707C102.623 230.531 102.921 231.161 103.517 231.597C104.123 232.023 104.891 232.236 105.819 232.236ZM135.059 226.71V214.182H141.11V236H135.3V232.037H135.073C134.58 233.315 133.761 234.343 132.615 235.119C131.479 235.896 130.092 236.284 128.453 236.284C126.995 236.284 125.712 235.953 124.604 235.29C123.496 234.627 122.63 233.685 122.005 232.463C121.389 231.241 121.077 229.778 121.067 228.074V214.182H127.118V226.994C127.128 228.282 127.473 229.3 128.155 230.048C128.837 230.796 129.751 231.17 130.897 231.17C131.626 231.17 132.308 231.005 132.942 230.673C133.577 230.332 134.088 229.83 134.476 229.168C134.874 228.505 135.068 227.686 135.059 226.71ZM153.99 236.355C152.333 236.355 150.832 235.929 149.487 235.077C148.152 234.215 147.091 232.951 146.305 231.284C145.529 229.608 145.14 227.553 145.14 225.119C145.14 222.619 145.543 220.541 146.348 218.884C147.153 217.217 148.223 215.972 149.558 215.148C150.903 214.314 152.375 213.898 153.975 213.898C155.197 213.898 156.215 214.106 157.029 214.523C157.853 214.93 158.516 215.441 159.018 216.057C159.529 216.663 159.918 217.259 160.183 217.847H160.368V206.909H166.404V236H160.439V232.506H160.183C159.899 233.112 159.496 233.713 158.975 234.31C158.464 234.897 157.797 235.384 156.973 235.773C156.158 236.161 155.164 236.355 153.99 236.355ZM155.907 231.54C156.883 231.54 157.707 231.275 158.379 230.744C159.061 230.205 159.582 229.452 159.941 228.486C160.311 227.52 160.495 226.388 160.495 225.091C160.495 223.794 160.315 222.667 159.956 221.71C159.596 220.754 159.075 220.015 158.393 219.494C157.711 218.973 156.883 218.713 155.907 218.713C154.913 218.713 154.075 218.983 153.393 219.523C152.711 220.062 152.195 220.811 151.845 221.767C151.494 222.723 151.319 223.831 151.319 225.091C151.319 226.36 151.494 227.482 151.845 228.457C152.205 229.423 152.721 230.181 153.393 230.73C154.075 231.27 154.913 231.54 155.907 231.54ZM181.323 236.426C179.078 236.426 177.147 235.972 175.527 235.062C173.917 234.144 172.677 232.847 171.806 231.17C170.935 229.485 170.499 227.491 170.499 225.19C170.499 222.946 170.935 220.976 171.806 219.281C172.677 217.586 173.903 216.265 175.485 215.318C177.076 214.371 178.941 213.898 181.081 213.898C182.521 213.898 183.861 214.13 185.101 214.594C186.351 215.048 187.44 215.735 188.368 216.653C189.306 217.572 190.035 218.727 190.556 220.119C191.077 221.502 191.337 223.121 191.337 224.977V226.639H172.914V222.889H185.641C185.641 222.018 185.452 221.246 185.073 220.574C184.694 219.902 184.168 219.376 183.496 218.997C182.833 218.609 182.061 218.415 181.181 218.415C180.262 218.415 179.448 218.628 178.738 219.054C178.037 219.471 177.488 220.034 177.09 220.744C176.692 221.445 176.489 222.226 176.479 223.088V226.653C176.479 227.733 176.678 228.666 177.076 229.452C177.483 230.238 178.056 230.844 178.794 231.27C179.533 231.696 180.409 231.909 181.422 231.909C182.095 231.909 182.71 231.814 183.269 231.625C183.828 231.436 184.306 231.152 184.703 230.773C185.101 230.394 185.404 229.93 185.613 229.381L191.209 229.75C190.925 231.095 190.343 232.269 189.462 233.273C188.591 234.267 187.464 235.044 186.081 235.602C184.708 236.152 183.122 236.426 181.323 236.426ZM212.583 236.355C210.926 236.355 209.425 235.929 208.081 235.077C206.745 234.215 205.685 232.951 204.899 231.284C204.122 229.608 203.734 227.553 203.734 225.119C203.734 222.619 204.136 220.541 204.941 218.884C205.746 217.217 206.816 215.972 208.152 215.148C209.496 214.314 210.969 213.898 212.569 213.898C213.791 213.898 214.809 214.106 215.623 214.523C216.447 214.93 217.11 215.441 217.612 216.057C218.123 216.663 218.511 217.259 218.777 217.847H218.961V206.909H224.998V236H219.032V232.506H218.777C218.493 233.112 218.09 233.713 217.569 234.31C217.058 234.897 216.39 235.384 215.566 235.773C214.752 236.161 213.758 236.355 212.583 236.355ZM214.501 231.54C215.476 231.54 216.3 231.275 216.973 230.744C217.654 230.205 218.175 229.452 218.535 228.486C218.904 227.52 219.089 226.388 219.089 225.091C219.089 223.794 218.909 222.667 218.549 221.71C218.19 220.754 217.669 220.015 216.987 219.494C216.305 218.973 215.476 218.713 214.501 218.713C213.507 218.713 212.669 218.983 211.987 219.523C211.305 220.062 210.789 220.811 210.439 221.767C210.088 222.723 209.913 223.831 209.913 225.091C209.913 226.36 210.088 227.482 210.439 228.457C210.798 229.423 211.315 230.181 211.987 230.73C212.669 231.27 213.507 231.54 214.501 231.54ZM236.195 236.412C234.803 236.412 233.562 236.17 232.473 235.688C231.384 235.195 230.523 234.471 229.888 233.514C229.263 232.548 228.951 231.346 228.951 229.906C228.951 228.694 229.173 227.676 229.618 226.852C230.063 226.028 230.669 225.366 231.436 224.864C232.203 224.362 233.075 223.983 234.05 223.727C235.035 223.472 236.067 223.292 237.147 223.188C238.416 223.055 239.438 222.932 240.215 222.818C240.991 222.695 241.555 222.515 241.905 222.278C242.256 222.042 242.431 221.691 242.431 221.227V221.142C242.431 220.242 242.147 219.546 241.578 219.054C241.02 218.562 240.224 218.315 239.192 218.315C238.103 218.315 237.237 218.557 236.593 219.04C235.949 219.513 235.523 220.11 235.314 220.83L229.718 220.375C230.002 219.049 230.56 217.903 231.394 216.938C232.227 215.962 233.302 215.214 234.618 214.693C235.944 214.163 237.478 213.898 239.221 213.898C240.433 213.898 241.593 214.04 242.701 214.324C243.818 214.608 244.808 215.048 245.669 215.645C246.541 216.241 247.227 217.009 247.729 217.946C248.231 218.874 248.482 219.987 248.482 221.284V236H242.743V232.974H242.573C242.222 233.656 241.754 234.258 241.167 234.778C240.579 235.29 239.874 235.692 239.05 235.986C238.226 236.27 237.275 236.412 236.195 236.412ZM237.928 232.236C238.818 232.236 239.604 232.061 240.286 231.71C240.968 231.35 241.503 230.867 241.891 230.261C242.279 229.655 242.473 228.969 242.473 228.202V225.886C242.284 226.009 242.024 226.123 241.692 226.227C241.37 226.322 241.006 226.412 240.598 226.497C240.191 226.573 239.784 226.644 239.377 226.71C238.97 226.767 238.6 226.819 238.269 226.866C237.559 226.971 236.938 227.136 236.408 227.364C235.878 227.591 235.466 227.899 235.172 228.287C234.879 228.666 234.732 229.139 234.732 229.707C234.732 230.531 235.03 231.161 235.627 231.597C236.233 232.023 237 232.236 237.928 232.236ZM93.6648 284V262.182H99.4318V266.031H99.6875C100.142 264.753 100.9 263.744 101.96 263.006C103.021 262.267 104.29 261.898 105.767 261.898C107.263 261.898 108.537 262.272 109.588 263.02C110.639 263.759 111.34 264.762 111.69 266.031H111.918C112.363 264.781 113.168 263.782 114.332 263.034C115.507 262.277 116.894 261.898 118.494 261.898C120.53 261.898 122.183 262.546 123.452 263.844C124.73 265.132 125.369 266.959 125.369 269.327V284H119.332V270.52C119.332 269.308 119.01 268.399 118.366 267.793C117.723 267.187 116.918 266.884 115.952 266.884C114.853 266.884 113.996 267.234 113.381 267.935C112.765 268.626 112.457 269.54 112.457 270.676V284H106.591V270.392C106.591 269.322 106.283 268.47 105.668 267.835C105.062 267.201 104.261 266.884 103.267 266.884C102.595 266.884 101.989 267.054 101.449 267.395C100.919 267.726 100.497 268.195 100.185 268.801C99.8722 269.398 99.7159 270.098 99.7159 270.903V284H93.6648ZM144.141 274.71V262.182H150.192V284H144.382V280.037H144.155C143.662 281.315 142.843 282.343 141.697 283.119C140.561 283.896 139.174 284.284 137.536 284.284C136.077 284.284 134.794 283.953 133.686 283.29C132.578 282.627 131.712 281.685 131.087 280.463C130.471 279.241 130.159 277.778 130.149 276.074V262.182H136.2V274.994C136.21 276.282 136.555 277.3 137.237 278.048C137.919 278.796 138.833 279.17 139.979 279.17C140.708 279.17 141.39 279.005 142.024 278.673C142.659 278.332 143.17 277.83 143.558 277.168C143.956 276.505 144.15 275.686 144.141 274.71ZM161.083 254.909V284H155.032V254.909H161.083ZM171.982 271.386V284H165.93V254.909H171.811V266.031H172.067C172.559 264.743 173.355 263.735 174.453 263.006C175.552 262.267 176.929 261.898 178.587 261.898C180.102 261.898 181.423 262.229 182.55 262.892C183.686 263.545 184.567 264.488 185.192 265.719C185.826 266.94 186.139 268.403 186.129 270.108V284H180.078V271.188C180.088 269.843 179.747 268.796 179.055 268.048C178.374 267.3 177.417 266.926 176.186 266.926C175.362 266.926 174.633 267.101 173.999 267.452C173.374 267.802 172.881 268.313 172.521 268.986C172.171 269.649 171.991 270.449 171.982 271.386ZM200.835 284.426C198.59 284.426 196.658 283.972 195.039 283.062C193.429 282.144 192.189 280.847 191.317 279.17C190.446 277.485 190.011 275.491 190.011 273.19C190.011 270.946 190.446 268.976 191.317 267.281C192.189 265.586 193.415 264.265 194.996 263.318C196.587 262.371 198.453 261.898 200.593 261.898C202.032 261.898 203.372 262.13 204.613 262.594C205.863 263.048 206.952 263.735 207.88 264.653C208.817 265.572 209.547 266.727 210.067 268.119C210.588 269.502 210.849 271.121 210.849 272.977V274.639H192.425V270.889H205.153C205.153 270.018 204.963 269.246 204.585 268.574C204.206 267.902 203.68 267.376 203.008 266.997C202.345 266.609 201.573 266.415 200.692 266.415C199.774 266.415 198.96 266.628 198.249 267.054C197.549 267.471 196.999 268.034 196.602 268.744C196.204 269.445 196 270.226 195.991 271.088V274.653C195.991 275.733 196.19 276.666 196.587 277.452C196.995 278.238 197.567 278.844 198.306 279.27C199.045 279.696 199.921 279.909 200.934 279.909C201.606 279.909 202.222 279.814 202.781 279.625C203.339 279.436 203.817 279.152 204.215 278.773C204.613 278.394 204.916 277.93 205.124 277.381L210.721 277.75C210.437 279.095 209.854 280.269 208.974 281.273C208.103 282.267 206.976 283.044 205.593 283.602C204.22 284.152 202.634 284.426 200.835 284.426ZM214.798 284V262.182H220.664V265.989H220.891C221.289 264.634 221.957 263.612 222.894 262.92C223.832 262.22 224.911 261.869 226.133 261.869C226.436 261.869 226.763 261.888 227.113 261.926C227.463 261.964 227.771 262.016 228.036 262.082V267.452C227.752 267.366 227.359 267.291 226.857 267.224C226.355 267.158 225.896 267.125 225.479 267.125C224.589 267.125 223.794 267.319 223.093 267.707C222.402 268.086 221.853 268.616 221.445 269.298C221.048 269.98 220.849 270.766 220.849 271.656V284H214.798Z" fill="#05554F"/>
</svg>
